<?xml version="1.0" encoding="UTF-8" standalone="no"?>
<!-- Created with Inkscape (http://www.inkscape.org/) -->

<svg
   xmlns:dc="http://purl.org/dc/elements/1.1/"
   xmlns:cc="http://creativecommons.org/ns#"
   xmlns:rdf="http://www.w3.org/1999/02/22-rdf-syntax-ns#"
   xmlns:svg="http://www.w3.org/2000/svg"
   xmlns="http://www.w3.org/2000/svg"
   xmlns:xlink="http://www.w3.org/1999/xlink"
   xmlns:sodipodi="http://sodipodi.sourceforge.net/DTD/sodipodi-0.dtd"
   xmlns:inkscape="http://www.inkscape.org/namespaces/inkscape"
   width="210mm"
   height="297mm"
   id="svg2"
   version="1.1"
   inkscape:version="0.48.4 r9939"
   sodipodi:docname="recorder_icon.svg"
   inkscape:export-filename="/home/raziel/tmp/xxhdpi.png"
   inkscape:export-xdpi="30.891621"
   inkscape:export-ydpi="30.891621">
  <defs
     id="defs4">
    <marker
       inkscape:stockid="Arrow1Lstart"
       orient="auto"
       refY="0.0"
       refX="0.0"
       id="Arrow1Lstart"
       style="overflow:visible">
      <path
         id="path3858"
         d="M 0.0,0.0 L 5.0,-5.0 L -12.5,0.0 L 5.0,5.0 L 0.0,0.0 z "
         style="fill-rule:evenodd;stroke:#000000;stroke-width:1.0pt"
         transform="scale(0.8) translate(12.5,0)" />
    </marker>
    <linearGradient
       id="linearGradient3827">
      <stop
         style="stop-color:#e7f5fe;stop-opacity:1"
         offset="0"
         id="stop3829" />
      <stop
         style="stop-color:#4ab2d7;stop-opacity:1"
         offset="1"
         id="stop3831" />
    </linearGradient>
    <linearGradient
       id="linearGradient3819">
      <stop
         style="stop-color:#000000;stop-opacity:1;"
         offset="0"
         id="stop3821" />
      <stop
         style="stop-color:#000000;stop-opacity:1"
         offset="1"
         id="stop3823" />
    </linearGradient>
    <linearGradient
       id="linearGradient3793">
      <stop
         style="stop-color:#98deff;stop-opacity:1;"
         offset="0"
         id="stop3795" />
      <stop
         style="stop-color:#000000;stop-opacity:0;"
         offset="1"
         id="stop3797" />
    </linearGradient>
    <linearGradient
       id="linearGradient3777">
      <stop
         style="stop-color:#009b00;stop-opacity:1;"
         offset="0"
         id="stop3779" />
      <stop
         style="stop-color:#000000;stop-opacity:0;"
         offset="1"
         id="stop3781" />
    </linearGradient>
    <linearGradient
       id="linearGradient3771">
      <stop
         style="stop-color:#b3d2f7;stop-opacity:0.49803922;"
         offset="0"
         id="stop3773" />
      <stop
         id="stop3775"
         offset="1"
         style="stop-color:#b3d2f7;stop-opacity:0;" />
    </linearGradient>
    <linearGradient
       id="linearGradient3761">
      <stop
         id="stop3769"
         offset="0"
         style="stop-color:#b3d2f7;stop-opacity:0.49803922;" />
      <stop
         style="stop-color:#b3d2f7;stop-opacity:0;"
         offset="1"
         id="stop3765" />
    </linearGradient>
    <linearGradient
       inkscape:collect="always"
       xlink:href="#linearGradient3827"
       id="linearGradient3833"
       x1="119.34663"
       y1="264.16925"
       x2="523.73822"
       y2="620.75311"
       gradientUnits="userSpaceOnUse"
       gradientTransform="translate(58.588848,-88.893424)" />
  </defs>
  <sodipodi:namedview
     id="base"
     pagecolor="#ffffff"
     bordercolor="#666666"
     borderopacity="1.0"
     inkscape:pageopacity="0.0"
     inkscape:pageshadow="2"
     inkscape:zoom="1.4"
     inkscape:cx="430.02294"
     inkscape:cy="696.67864"
     inkscape:document-units="px"
     inkscape:current-layer="layer1"
     showgrid="false"
     inkscape:window-width="1600"
     inkscape:window-height="854"
     inkscape:window-x="-4"
     inkscape:window-y="-4"
     inkscape:window-maximized="1" />
  <metadata
     id="metadata7">
    <rdf:RDF>
      <cc:Work
         rdf:about="">
        <dc:format>image/svg+xml</dc:format>
        <dc:type
           rdf:resource="http://purl.org/dc/dcmitype/StillImage" />
        <dc:title />
      </cc:Work>
    </rdf:RDF>
  </metadata>
  <g
     inkscape:label="Capa 1"
     inkscape:groupmode="layer"
     id="layer1">
    <rect
       style="fill:url(#linearGradient3833);fill-opacity:1;fill-rule:nonzero;stroke:#63beed;stroke-width:4;stroke-linecap:butt;stroke-linejoin:bevel;stroke-miterlimit:4;stroke-opacity:1;stroke-dasharray:none"
       id="rect2987"
       width="415.52399"
       height="415.52399"
       x="172.87457"
       y="169.18304"
       ry="20"
       rx="20" />
    <path
       inkscape:connector-curvature="0"
       id="path3853"
       d="m 332.74582,530.67865 c -5.0223,-0.41775 -5.96214,-0.90593 -6.64941,-3.45388 -0.68644,-2.54486 -0.40806,-17.57803 0.33934,-18.32543 0.3364,-0.3364 6.92066,-0.72485 18.76599,-1.10714 10.03627,-0.32392 18.41083,-0.75182 18.61013,-0.9509 0.58927,-0.58861 0.44524,-26.1445 -0.15071,-26.7412 -0.28218,-0.28254 -2.83414,-1.13056 -5.67099,-1.88449 -5.27979,-1.40316 -7.81142,-2.33258 -14.84587,-5.45028 -18.57971,-8.23458 -33.61342,-22.83385 -42.33581,-41.11237 -4.54996,-9.53487 -6.69662,-17.55747 -7.84,-29.30013 -0.60573,-6.22101 -0.7239,-65.00358 -0.13259,-65.96034 0.1543,-0.24968 5.40705,-0.43753 12.2343,-0.43753 l 11.9639,0 0.29536,1.47682 c 0.16245,0.81225 0.29493,4.79967 0.29439,8.86092 -0.002,11.2459 0.90136,42.95602 1.43024,50.23328 0.86825,11.94684 2.36437,17.87224 6.39473,25.32634 3.66683,6.78175 7.28051,12.00777 10.54754,15.25359 6.23795,6.19747 18.34344,13.03926 27.30963,15.43486 4.20656,1.12391 5.50325,1.24597 13.62796,1.28281 9.71006,0.0441 13.65444,-0.51981 20.32106,-2.90487 8.25394,-2.95295 14.47208,-6.82504 20.82626,-12.96869 8.85978,-8.56625 14.60809,-18.98104 17.952,-32.5254 0.62885,-2.54714 0.83132,-8.15689 1.18549,-32.8445 0.42621,-29.7096 0.62186,-34.91418 1.35721,-36.104 0.54975,-0.88949 8.00281,-1.56899 15.17431,-1.38345 6.96705,0.18027 8.17431,0.67532 8.64873,3.54649 0.48269,2.92123 0.3376,58.3583 -0.17232,65.84029 -0.80095,11.75236 -2.24031,17.05896 -7.49959,27.64941 -6.48832,13.06533 -15.00314,23.01364 -27.69938,32.36263 -8.34182,6.14259 -15.77898,9.89697 -24.85255,12.54592 -8.35016,2.43775 -9.8288,3.01749 -10.39513,4.07568 -1.33641,2.49711 -1.6805,22.63937 -0.42677,24.982 0.65988,1.23298 2.32995,1.38663 19.60664,1.80386 20.65315,0.49875 19.84848,0.003 19.84848,12.23199 0,6.7286 -0.0656,7.25939 -1.01499,8.20874 -2.51573,2.51572 -2.53413,2.51669 -49.55136,2.59803 -23.91269,0.0413 -45.28599,-0.0752 -47.49622,-0.25906 z m 37.24777,-92.64875 c -6.99939,-1.11517 -13.18343,-3.53998 -19.52426,-7.65562 -6.94309,-4.50654 -11.73948,-10.11528 -16.0823,-18.80609 -3.77957,-7.56364 -3.58173,-5.94127 -4.09165,-33.55337 -0.53085,-28.74591 -0.17645,-102.14012 0.51702,-107.07135 1.98996,-14.15056 14.1244,-28.95115 28.39971,-34.6396 5.68022,-2.26347 10.95374,-3.08482 19.84847,-3.09141 6.67126,-0.005 8.33657,0.14754 11.52867,1.05566 7.85061,2.23341 15.26625,6.6103 21.35627,12.60501 4.6894,4.616 7.39768,8.48013 10.88958,15.53708 l 3.01117,6.08542 -0.005,66.45601 -0.005,66.45602 -2.09778,5.13501 c -1.15378,2.82426 -2.79996,6.33258 -3.65818,7.79626 -2.12698,3.62754 -14.44406,15.96124 -18.10079,18.12521 -3.28068,1.94143 -8.83856,3.93345 -13.65314,4.89347 -4.24851,0.84714 -14.80666,1.2343 -18.33411,0.67229 z"
       style="fill:#999999;fill-opacity:1" />
    <path
       style="fill:#ffffff;fill-opacity:1"
       d="m 333.46011,531.39294 c -5.0223,-0.41775 -5.96214,-0.90593 -6.64941,-3.45388 -0.68644,-2.54486 -0.40806,-17.57803 0.33934,-18.32543 0.3364,-0.3364 6.92066,-0.72485 18.76599,-1.10714 10.03627,-0.32392 18.41083,-0.75182 18.61013,-0.9509 0.58927,-0.58861 0.44524,-26.1445 -0.15071,-26.7412 -0.28218,-0.28254 -2.83414,-1.13056 -5.67099,-1.88449 -5.27979,-1.40316 -7.81142,-2.33258 -14.84587,-5.45028 -18.57971,-8.23458 -33.61342,-22.83385 -42.33581,-41.11237 -4.54996,-9.53487 -6.69662,-17.55747 -7.84,-29.30013 -0.60573,-6.22101 -0.7239,-65.00358 -0.13259,-65.96034 0.1543,-0.24968 5.40705,-0.43753 12.2343,-0.43753 l 11.9639,0 0.29536,1.47682 c 0.16245,0.81225 0.29493,4.79967 0.29439,8.86092 -0.002,11.2459 0.90136,42.95602 1.43024,50.23328 0.86825,11.94684 2.36437,17.87224 6.39473,25.32634 3.66683,6.78175 7.28051,12.00777 10.54754,15.25359 6.23795,6.19747 18.34344,13.03926 27.30963,15.43486 4.20656,1.12391 5.50325,1.24597 13.62796,1.28281 9.71006,0.0441 13.65444,-0.51981 20.32106,-2.90487 8.25394,-2.95295 14.47208,-6.82504 20.82626,-12.96869 8.85978,-8.56625 14.60809,-18.98104 17.952,-32.5254 0.62885,-2.54714 0.83132,-8.15689 1.18549,-32.8445 0.42621,-29.7096 0.62186,-34.91418 1.35721,-36.104 0.54975,-0.88949 8.00281,-1.56899 15.17431,-1.38345 6.96705,0.18027 8.17431,0.67532 8.64873,3.54649 0.48269,2.92123 0.3376,58.3583 -0.17232,65.84029 -0.80095,11.75236 -2.24031,17.05896 -7.49959,27.64941 -6.48832,13.06533 -15.00314,23.01364 -27.69938,32.36263 -8.34182,6.14259 -15.77898,9.89697 -24.85255,12.54592 -8.35016,2.43775 -9.8288,3.01749 -10.39513,4.07568 -1.33641,2.49711 -1.6805,22.63937 -0.42677,24.982 0.65988,1.23298 2.32995,1.38663 19.60664,1.80386 20.65315,0.49875 19.84848,0.003 19.84848,12.23199 0,6.7286 -0.0656,7.25939 -1.01499,8.20874 -2.51573,2.51572 -2.53413,2.51669 -49.55136,2.59803 -23.91269,0.0413 -45.28599,-0.0752 -47.49622,-0.25906 z m 37.24777,-92.64875 c -6.99939,-1.11517 -13.18343,-3.53998 -19.52426,-7.65562 -6.94309,-4.50654 -11.73948,-10.11528 -16.0823,-18.80609 -3.77957,-7.56364 -3.58173,-5.94127 -4.09165,-33.55337 -0.53085,-28.74591 -0.17645,-102.14012 0.51702,-107.07135 1.98996,-14.15056 14.1244,-28.95115 28.39971,-34.6396 5.68022,-2.26347 10.95374,-3.08482 19.84847,-3.09141 6.67126,-0.005 8.33657,0.14754 11.52867,1.05566 7.85061,2.23341 15.26625,6.6103 21.35627,12.60501 4.6894,4.616 7.39768,8.48013 10.88958,15.53708 l 3.01117,6.08542 -0.005,66.45601 -0.005,66.45602 -2.09778,5.13501 c -1.15378,2.82426 -2.79996,6.33258 -3.65818,7.79626 -2.12698,3.62754 -14.44406,15.96124 -18.10079,18.12521 -3.28068,1.94143 -8.83856,3.93345 -13.65314,4.89347 -4.24851,0.84714 -14.80666,1.2343 -18.33411,0.67229 z"
       id="path3030"
       inkscape:connector-curvature="0" />
  </g>
</svg>
